<svg width="149" height="43" viewBox="0 0 149 43" fill="none" xmlns="http://www.w3.org/2000/svg">
<path d="M114 0V35H148.851V0H114ZM132.966 27.2969C132.966 30.7031 130.975 32.2578 128.073 32.2578C125.451 32.2578 123.934 30.8984 123.156 29.25L125.825 27.6328C126.338 28.5469 126.805 29.3203 127.933 29.3203C129.006 29.3203 129.691 28.8984 129.691 27.25V16.0703H132.966V27.2969ZM140.714 32.2578C137.673 32.2578 135.704 30.8047 134.748 28.8984L137.416 27.3516C138.116 28.5 139.034 29.3516 140.644 29.3516C141.998 29.3516 142.869 28.6719 142.869 27.7266C142.869 26.6016 141.982 26.2031 140.481 25.5391L139.664 25.1875C137.299 24.1797 135.736 22.9062 135.736 20.2266C135.736 17.7578 137.61 15.8828 140.528 15.8828C142.612 15.8828 144.106 16.6094 145.18 18.5156L142.628 20.1562C142.068 19.1484 141.461 18.75 140.52 18.75C139.563 18.75 138.956 19.3594 138.956 20.1562C138.956 21.1406 139.563 21.5391 140.971 22.1562L141.788 22.5078C144.573 23.7031 146.136 24.9297 146.136 27.6797C146.136 30.6328 143.818 32.2578 140.714 32.2578Z" fill="#F7F3F5"/>
<path d="M6.35055 24.164H16.7105V25.928H6.35055V24.164ZM6.57455 33.208H18.3625V35H4.50255V15.4H17.9425V17.192H6.57455V33.208ZM20.1629 35L26.3789 26.936L26.3509 27.916L20.4429 20.3H22.6829L27.5269 26.6L26.6869 26.572L31.5309 20.3H33.7149L27.7509 28L27.7789 26.936L34.0509 35H31.7829L26.6589 28.28L27.4429 28.392L22.4029 35H20.1629ZM44.9479 35.14C43.6786 35.14 42.5306 34.8507 41.5039 34.272C40.4772 33.6747 39.6559 32.8253 39.0399 31.724C38.4426 30.604 38.1439 29.2413 38.1439 27.636C38.1439 26.0307 38.4426 24.6773 39.0399 23.576C39.6372 22.456 40.4492 21.6067 41.4759 21.028C42.5026 20.4493 43.6599 20.16 44.9479 20.16C46.3479 20.16 47.5986 20.4773 48.6999 21.112C49.8199 21.728 50.6972 22.6053 51.3319 23.744C51.9666 24.864 52.2839 26.1613 52.2839 27.636C52.2839 29.1293 51.9666 30.436 51.3319 31.556C50.6972 32.676 49.8199 33.5533 48.6999 34.188C47.5986 34.8227 46.3479 35.14 44.9479 35.14ZM37.3599 40.432V20.3H39.2639V24.724L39.0679 27.664L39.3479 30.632V40.432H37.3599ZM44.8079 33.376C45.8532 33.376 46.7866 33.1427 47.6079 32.676C48.4292 32.1907 49.0826 31.5187 49.5679 30.66C50.0532 29.7827 50.2959 28.7747 50.2959 27.636C50.2959 26.4973 50.0532 25.4987 49.5679 24.64C49.0826 23.7813 48.4292 23.1093 47.6079 22.624C46.7866 22.1387 45.8532 21.896 44.8079 21.896C43.7626 21.896 42.8199 22.1387 41.9799 22.624C41.1586 23.1093 40.5052 23.7813 40.0199 24.64C39.5532 25.4987 39.3199 26.4973 39.3199 27.636C39.3199 28.7747 39.5532 29.7827 40.0199 30.66C40.5052 31.5187 41.1586 32.1907 41.9799 32.676C42.8199 33.1427 43.7626 33.376 44.8079 33.376ZM56.3365 35V20.3H58.2405V24.304L58.0445 23.604C58.4551 22.484 59.1458 21.6347 60.1165 21.056C61.0871 20.4587 62.2911 20.16 63.7285 20.16V22.092C63.6538 22.092 63.5791 22.092 63.5045 22.092C63.4298 22.0733 63.3551 22.064 63.2805 22.064C61.7311 22.064 60.5178 22.54 59.6405 23.492C58.7631 24.4253 58.3245 25.76 58.3245 27.496V35H56.3365ZM73.4633 35.14C71.9326 35.14 70.5886 34.8227 69.4313 34.188C68.2739 33.5347 67.3686 32.648 66.7153 31.528C66.0619 30.3893 65.7353 29.092 65.7353 27.636C65.7353 26.18 66.0433 24.892 66.6593 23.772C67.2939 22.652 68.1526 21.7747 69.2353 21.14C70.3366 20.4867 71.5686 20.16 72.9313 20.16C74.3126 20.16 75.5353 20.4773 76.5993 21.112C77.6819 21.728 78.5313 22.6053 79.1473 23.744C79.7633 24.864 80.0713 26.1613 80.0713 27.636C80.0713 27.7293 80.0619 27.832 80.0433 27.944C80.0433 28.0373 80.0433 28.14 80.0433 28.252H67.2473V26.768H78.9793L78.1953 27.356C78.1953 26.292 77.9619 25.3493 77.4953 24.528C77.0473 23.688 76.4313 23.0347 75.6473 22.568C74.8633 22.1013 73.9579 21.868 72.9313 21.868C71.9233 21.868 71.0179 22.1013 70.2153 22.568C69.4126 23.0347 68.7873 23.688 68.3393 24.528C67.8913 25.368 67.6673 26.3293 67.6673 27.412V27.72C67.6673 28.84 67.9099 29.8293 68.3953 30.688C68.8993 31.528 69.5899 32.1907 70.4673 32.676C71.3633 33.1427 72.3806 33.376 73.5193 33.376C74.4153 33.376 75.2459 33.2173 76.0113 32.9C76.7953 32.5827 77.4673 32.0973 78.0273 31.444L79.1473 32.732C78.4939 33.516 77.6726 34.1133 76.6833 34.524C75.7126 34.9347 74.6393 35.14 73.4633 35.14ZM88.0657 35.14C86.8524 35.14 85.7044 34.972 84.6217 34.636C83.539 34.2813 82.6897 33.8427 82.0737 33.32L82.9697 31.752C83.567 32.2 84.3324 32.592 85.2657 32.928C86.199 33.2453 87.179 33.404 88.2057 33.404C89.6057 33.404 90.6137 33.1893 91.2297 32.76C91.8457 32.312 92.1537 31.724 92.1537 30.996C92.1537 30.4547 91.9764 30.0347 91.6217 29.736C91.2857 29.4187 90.8377 29.1853 90.2777 29.036C89.7177 28.868 89.0924 28.728 88.4017 28.616C87.711 28.504 87.0204 28.3733 86.3297 28.224C85.6577 28.0747 85.0417 27.86 84.4817 27.58C83.9217 27.2813 83.4644 26.88 83.1097 26.376C82.7737 25.872 82.6057 25.2 82.6057 24.36C82.6057 23.5573 82.8297 22.8387 83.2777 22.204C83.7257 21.5693 84.379 21.0747 85.2377 20.72C86.115 20.3467 87.179 20.16 88.4297 20.16C89.3817 20.16 90.3337 20.2907 91.2857 20.552C92.2377 20.7947 93.0217 21.1213 93.6377 21.532L92.7697 23.128C92.1164 22.68 91.4164 22.3627 90.6697 22.176C89.923 21.9707 89.1764 21.868 88.4297 21.868C87.1044 21.868 86.1244 22.1013 85.4897 22.568C84.8737 23.016 84.5657 23.5947 84.5657 24.304C84.5657 24.864 84.7337 25.3027 85.0697 25.62C85.4244 25.9373 85.8817 26.1893 86.4417 26.376C87.0204 26.544 87.6457 26.684 88.3177 26.796C89.0084 26.908 89.6897 27.048 90.3617 27.216C91.0524 27.3653 91.6777 27.58 92.2377 27.86C92.8164 28.1213 93.2737 28.504 93.6097 29.008C93.9644 29.4933 94.1417 30.1373 94.1417 30.94C94.1417 31.7987 93.899 32.5453 93.4137 33.18C92.947 33.796 92.2564 34.2813 91.3417 34.636C90.4457 34.972 89.3537 35.14 88.0657 35.14ZM101.738 35.14C100.524 35.14 99.3762 34.972 98.2936 34.636C97.2109 34.2813 96.3616 33.8427 95.7456 33.32L96.6416 31.752C97.2389 32.2 98.0042 32.592 98.9376 32.928C99.8709 33.2453 100.851 33.404 101.878 33.404C103.278 33.404 104.286 33.1893 104.902 32.76C105.518 32.312 105.826 31.724 105.826 30.996C105.826 30.4547 105.648 30.0347 105.294 29.736C104.958 29.4187 104.51 29.1853 103.95 29.036C103.39 28.868 102.764 28.728 102.074 28.616C101.383 28.504 100.692 28.3733 100.002 28.224C99.3296 28.0747 98.7136 27.86 98.1536 27.58C97.5936 27.2813 97.1362 26.88 96.7816 26.376C96.4456 25.872 96.2776 25.2 96.2776 24.36C96.2776 23.5573 96.5016 22.8387 96.9496 22.204C97.3976 21.5693 98.0509 21.0747 98.9096 20.72C99.7869 20.3467 100.851 20.16 102.102 20.16C103.054 20.16 104.006 20.2907 104.958 20.552C105.91 20.7947 106.694 21.1213 107.31 21.532L106.442 23.128C105.788 22.68 105.088 22.3627 104.342 22.176C103.595 21.9707 102.848 21.868 102.102 21.868C100.776 21.868 99.7962 22.1013 99.1616 22.568C98.5456 23.016 98.2376 23.5947 98.2376 24.304C98.2376 24.864 98.4056 25.3027 98.7416 25.62C99.0962 25.9373 99.5536 26.1893 100.114 26.376C100.692 26.544 101.318 26.684 101.99 26.796C102.68 26.908 103.362 27.048 104.034 27.216C104.724 27.3653 105.35 27.58 105.91 27.86C106.488 28.1213 106.946 28.504 107.282 29.008C107.636 29.4933 107.814 30.1373 107.814 30.94C107.814 31.7987 107.571 32.5453 107.086 33.18C106.619 33.796 105.928 34.2813 105.014 34.636C104.118 34.972 103.026 35.14 101.738 35.14Z" fill="#F7F3F5"/>
</svg>
