<svg width="74" height="74" viewBox="0 0 74 74" fill="none" xmlns="http://www.w3.org/2000/svg">
<path d="M0 0V73.6458H73.3333V0H0ZM39.9077 57.4372C39.9077 64.6045 35.7173 67.8758 29.6116 67.8758C24.0952 67.8758 20.9033 65.0155 19.2664 61.5469L24.881 58.144C25.9613 60.0674 26.9435 61.6948 29.317 61.6948C31.5759 61.6948 33.0164 60.8071 33.0164 57.3385V33.8146H39.9077V57.4372ZM56.2113 67.8758C49.811 67.8758 45.6696 64.8182 43.6563 60.8071L49.2708 57.5522C50.744 59.9688 52.6756 61.7606 56.064 61.7606C58.9122 61.7606 60.7455 60.3304 60.7455 58.3413C60.7455 55.9741 58.8795 55.1357 55.7202 53.7384L54.0015 52.9987C49.0253 50.8781 45.7351 48.1986 45.7351 42.5601C45.7351 37.3654 49.6801 33.4201 55.8185 33.4201C60.2054 33.4201 63.3482 34.9489 65.6071 38.96L60.2381 42.4121C59.0595 40.2915 57.7827 39.4531 55.8021 39.4531C53.7887 39.4531 52.5119 40.7354 52.5119 42.4121C52.5119 44.4834 53.7887 45.3218 56.7515 46.6204L58.4702 47.3602C64.3304 49.8753 67.6205 52.4562 67.6205 58.2427C67.6205 64.4565 62.7426 67.8758 56.2113 67.8758Z" fill="#F7F3F5"/>
</svg>
