<svg width="150" height="41" viewBox="0 0 150 41" fill="none" xmlns="http://www.w3.org/2000/svg">
<path d="M18.1249 16.224C16.0608 7.11842 11.7588 4.69439 10.6613 2.98086C10.2088 2.226 9.80794 1.44136 9.46146 0.632324C9.40349 1.44123 9.29698 1.95085 8.60941 2.56427C7.22887 3.79516 1.36563 8.57311 0.872196 18.9191C0.412466 28.5653 7.96363 34.5135 8.96128 35.1282C9.7284 35.5057 10.6627 35.1363 11.1184 34.7898C14.7585 32.2917 19.7319 25.6317 18.1289 16.224" fill="#F7F3F5"/>
<path d="M9.77424 29.9917C9.58415 32.3793 9.44798 33.7666 8.96533 35.131C8.96533 35.131 9.28215 37.404 9.5046 39.8118H10.2919C10.4797 38.1163 10.7665 36.4331 11.1507 34.771C10.1315 34.2695 9.81334 32.0868 9.77424 29.9917Z" fill="#F7F3F5"/>
<path d="M11.1496 34.7723C10.1196 34.2964 9.82163 32.0678 9.77579 29.9916C10.0305 26.5668 10.1048 23.1309 9.99824 19.6983C9.94431 17.8971 10.0239 3.01588 9.55469 0.837219C9.87562 1.57511 10.2454 2.29078 10.6615 2.97948C11.759 4.69437 16.0624 7.11839 18.1251 16.224C19.7321 25.6154 14.7856 32.2579 11.1496 34.7723Z" fill="#F7F3F5"/>
<path d="M146.911 31.48C146.47 31.48 146.039 31.3496 145.672 31.1051C145.305 30.8607 145.018 30.5132 144.848 30.1063C144.678 29.6995 144.632 29.2513 144.716 28.8183C144.799 28.3853 145.009 27.9868 145.319 27.6728C145.629 27.3588 146.024 27.1434 146.456 27.0536C146.888 26.9638 147.337 27.0037 147.746 27.1683C148.155 27.3328 148.506 27.6146 148.756 27.9784C149.005 28.3421 149.142 28.7714 149.148 29.2124C149.156 29.5098 149.104 29.8057 148.995 30.0824C148.885 30.3591 148.721 30.6109 148.513 30.8226C148.304 31.0344 148.054 31.2018 147.779 31.3148C147.504 31.4278 147.209 31.484 146.911 31.48ZM146.911 27.209C146.508 27.2063 146.114 27.3233 145.777 27.5451C145.441 27.767 145.178 28.0837 145.021 28.4551C144.865 28.8265 144.823 29.236 144.899 29.6316C144.976 30.0272 145.168 30.3912 145.452 30.6775C145.735 30.9638 146.097 31.1594 146.492 31.2397C146.887 31.3199 147.297 31.2812 147.67 31.1283C148.043 30.9755 148.362 30.7154 148.587 30.3811C148.812 30.0467 148.932 29.6531 148.933 29.2501C148.939 28.9823 148.89 28.716 148.791 28.4673C148.691 28.2185 148.543 27.9922 148.354 27.8019C148.165 27.6115 147.941 27.461 147.693 27.3591C147.445 27.2573 147.179 27.2062 146.911 27.209ZM147.45 30.6576L146.873 29.4133H146.408V30.6576H146.07V27.8265H146.904C147.526 27.8265 147.785 28.0961 147.785 28.6179C147.785 29.0331 147.589 29.2919 147.225 29.3715L147.821 30.6536L147.45 30.6576ZM146.422 29.1207H146.911C147.308 29.1207 147.459 28.9859 147.459 28.6246C147.459 28.2633 147.314 28.1406 146.868 28.1406H146.422V29.1207Z" fill="#F7F3F5"/>
<path d="M113.623 29.4416C114.229 29.9256 115.438 30.1251 116.504 30.1251C117.886 30.1251 119.241 29.8689 120.565 28.6731C121.913 27.4476 122.841 25.5723 122.841 22.578C122.841 19.701 121.746 17.3659 119.5 15.9989C118.233 15.2021 116.591 14.888 114.718 14.888C114.179 14.888 113.623 14.9163 113.308 15.0592C113.178 15.1613 113.087 15.3036 113.048 15.4636C112.991 15.9759 112.991 19.8776 112.991 22.1843C112.991 24.549 112.991 27.8467 113.048 28.2511C113.077 28.5936 113.25 29.1948 113.623 29.447M107.875 13.6072C108.364 13.6072 110.224 13.6921 111.09 13.6921C112.708 13.6921 113.825 13.6072 116.849 13.6072C119.384 13.6072 121.517 14.2907 123.042 15.5998C124.886 17.196 125.873 19.4165 125.873 22.1223C125.873 25.9673 124.12 28.1891 122.358 29.4416C120.605 30.752 118.326 31.4922 115.078 31.4922C113.35 31.4922 110.382 31.4355 107.906 31.4072H107.854C107.738 31.1794 108.066 30.2909 108.268 30.268C108.942 30.1925 109.12 30.1655 109.43 30.0375C109.953 29.8231 110.076 29.5562 110.134 28.6165C110.22 26.8504 110.192 24.7432 110.192 22.3501C110.192 20.642 110.22 17.3093 110.164 16.255C110.076 15.3733 109.704 15.1455 108.95 14.9742C108.416 14.8607 107.876 14.7752 107.333 14.7181C107.276 14.5469 107.718 13.7744 107.862 13.6072" fill="#F7F3F5"/>
<path d="M133.011 15.0525C132.897 15.0808 132.753 15.3666 132.753 15.5082C132.723 16.5341 132.695 19.2103 132.695 21.0613C132.702 21.0967 132.719 21.1291 132.745 21.1546C132.771 21.18 132.803 21.1973 132.839 21.2042C133.212 21.2325 134.134 21.2622 134.912 21.2622C136.007 21.2622 136.641 21.1193 136.986 20.9481C137.908 20.4924 138.334 19.4947 138.334 18.4135C138.334 15.9355 136.606 14.9958 134.043 14.9958C133.696 14.9915 133.35 15.0104 133.006 15.0525M139.545 26.4446C139.545 23.9383 137.7 22.5147 134.33 22.5147C134.187 22.5147 133.117 22.4863 132.862 22.543C132.775 22.5713 132.689 22.6279 132.689 22.6859C132.689 24.4803 132.66 27.356 132.747 28.4952C132.805 28.9792 133.152 29.6627 133.582 29.8622C134.043 30.1184 135.08 30.175 135.799 30.175C137.787 30.175 139.545 29.0655 139.545 26.4446ZM127.807 13.6571C128.068 13.6571 128.833 13.742 130.792 13.742C132.635 13.742 134.133 13.6854 135.915 13.6854C138.133 13.6854 141.185 14.4835 141.185 17.7866C141.185 19.4044 140.034 20.7202 138.536 21.3471C138.45 21.3754 138.45 21.4321 138.536 21.4604C140.668 21.9996 142.539 23.3114 142.539 25.8177C142.539 28.2673 141.013 29.8056 138.795 30.7736C137.447 31.3722 135.771 31.5704 134.076 31.5704C132.781 31.5704 129.308 31.4356 127.377 31.4571C127.175 31.3722 127.562 30.4595 127.735 30.3179C128.177 30.3043 128.616 30.2355 129.041 30.113C129.731 29.9431 129.814 29.7207 129.9 28.6947C129.958 27.8117 129.958 24.6502 129.958 22.4001C129.958 19.3235 129.987 17.246 129.958 16.22C129.929 15.4232 129.641 15.1657 129.094 15.0242C128.662 14.9379 127.942 14.8529 127.367 14.768C127.222 14.6251 127.666 13.7704 127.809 13.6571" fill="#F7F3F5"/>
<path d="M24.5033 31.4801C24.4291 31.2978 24.3991 31.1005 24.4156 30.9044C24.4092 30.7707 24.4395 30.6378 24.5033 30.5202C24.8758 30.4664 25.2449 30.3913 25.6088 30.295C26.1184 30.1683 26.3098 29.8906 26.3395 29.2407C26.4231 27.7052 26.4285 24.8241 26.3988 22.7991V22.7398C26.3988 22.5214 26.3988 22.2248 26.1292 22.0158C25.6553 21.7185 25.1408 21.4914 24.6017 21.3417C24.3604 21.2703 24.2269 21.1436 24.2336 20.9953C24.2404 20.847 24.3927 20.6717 24.7069 20.6097C25.5414 20.5247 27.7281 20.003 28.5869 19.6066C28.6754 19.7219 28.7164 19.8666 28.7015 20.0111C28.7015 20.1001 28.688 20.1944 28.6786 20.2915C28.6543 20.5773 28.6274 20.9022 28.6274 21.2258C28.6326 21.2651 28.6488 21.3022 28.674 21.3328C28.6992 21.3634 28.7324 21.3864 28.77 21.3991C28.8075 21.4119 28.8479 21.4139 28.8865 21.4049C28.9252 21.396 28.9606 21.3764 28.9887 21.3485C30.624 20.0664 32.0895 19.6093 32.8404 19.6093C34.0767 19.6093 35.0393 20.1998 35.7849 21.4159C35.802 21.4452 35.8263 21.4697 35.8556 21.4869C35.8849 21.5042 35.9181 21.5136 35.952 21.5143C35.9829 21.514 36.0133 21.5063 36.0405 21.4917C36.0677 21.4772 36.091 21.4562 36.1084 21.4307C37.6116 20.2902 39.1014 19.6093 40.099 19.6093C42.4557 19.6093 43.8645 21.3741 43.8645 24.328C43.8645 25.1773 43.8564 26.2545 43.8483 27.2589C43.8416 28.1406 43.8349 28.9671 43.8349 29.5387C43.8349 29.6735 44.0209 30.0618 44.3 30.1386C44.6451 30.3071 45.1426 30.3934 45.7722 30.5013H45.7965C45.8436 30.6712 45.7439 31.3304 45.6482 31.4652C45.4918 31.4652 45.2761 31.4517 45.0064 31.4383C44.517 31.414 43.8456 31.3803 43.065 31.3803C41.4985 31.3803 40.6801 31.41 39.8982 31.4612C39.8388 31.2657 39.8186 30.6348 39.8901 30.5026C40.2139 30.452 40.5344 30.3822 40.85 30.2937C41.3488 30.1292 41.4931 29.9027 41.5241 29.2407C41.5362 28.7702 41.6265 24.6246 41.4661 23.6404C41.3178 22.6198 40.5493 21.4253 38.8681 21.4253C38.2439 21.4253 37.2368 21.6855 36.2769 22.4135C36.2174 22.481 36.1839 22.5676 36.1826 22.6576V22.6778C36.2958 23.209 36.2958 23.8291 36.2958 24.7661C36.2958 25.3054 36.2958 25.8676 36.2891 26.4298C36.2823 27.573 36.2769 28.6516 36.2958 29.4672C36.2958 30.0227 36.6315 30.1561 36.9025 30.2627C37.0495 30.295 37.1654 30.3233 37.2827 30.3503C37.5078 30.4056 37.7424 30.4622 38.0916 30.5175C38.1433 30.7543 38.1387 31 38.0781 31.2347C38.0638 31.3228 38.0292 31.4063 37.977 31.4787C37.1061 31.4491 36.2122 31.4234 34.922 31.4234C34.5311 31.4234 33.8934 31.4396 33.3298 31.4544C32.8728 31.4666 32.4414 31.4787 32.196 31.4801C32.1296 31.3235 32.1001 31.1537 32.1097 30.9839C32.0959 30.8239 32.1272 30.6633 32.2 30.5202L32.5465 30.4568C32.8485 30.4029 33.1101 30.357 33.3554 30.295C33.7815 30.1602 33.9419 29.9283 33.9729 29.385C34.0565 28.1177 34.1212 24.4655 33.9419 23.5514C33.6372 22.0846 32.8027 21.3404 31.4599 21.3404C30.6739 21.3404 29.6803 21.7192 28.8687 22.3273C28.7906 22.4033 28.7291 22.4946 28.6881 22.5955C28.647 22.6965 28.6272 22.8048 28.6301 22.9137C28.6301 23.3492 28.6301 23.8669 28.6301 24.4223C28.6301 26.2559 28.6179 28.5383 28.6624 29.5252C28.6894 29.8299 28.7972 30.1912 29.3675 30.3233C29.4929 30.3597 29.7086 30.3948 29.9594 30.4366C30.1036 30.4608 30.2614 30.4865 30.4245 30.5161C30.4764 30.839 30.45 31.1695 30.3476 31.4801C30.0969 31.4801 29.7881 31.4639 29.4349 31.4491C28.8957 31.4248 28.2216 31.3951 27.4598 31.3951C26.5593 31.3951 25.9323 31.4248 25.4295 31.4491C25.0911 31.4652 24.7985 31.4787 24.506 31.4801" fill="#F7F3F5"/>
<path d="M53.4151 20.828C52.9285 20.8179 52.4499 20.9526 52.04 21.215C51.0396 21.823 50.53 23.0377 50.53 24.8227C50.53 28.1635 52.2031 30.4972 54.5988 30.4972C55.2412 30.5176 55.8677 30.2957 56.3542 29.8757C57.0903 29.2757 57.4812 28.0489 57.4812 26.3313C57.4812 23.0404 55.8459 20.828 53.4124 20.828M53.8735 31.7362C49.5459 31.7362 48.0049 28.5612 48.0049 25.5912C48.0049 23.5163 48.8529 21.8944 50.526 20.7687C51.6978 20.0433 53.0429 19.6456 54.4209 19.6174C57.7226 19.6174 60.0293 21.9915 60.0293 25.393C60.0293 27.7038 59.1085 29.5292 57.3653 30.6698C56.5281 31.1821 55.0734 31.7362 53.8735 31.7362Z" fill="#F7F3F5"/>
<path d="M97.4735 20.828C96.9859 20.817 96.5062 20.9517 96.0956 21.215C95.0953 21.823 94.5857 23.0377 94.5857 24.8227C94.5857 28.1635 96.2588 30.4972 98.6545 30.4972C99.2987 30.5189 99.9274 30.297 100.415 29.8757C101.151 29.2757 101.541 28.0489 101.541 26.3313C101.541 23.0404 99.9069 20.828 97.4735 20.828ZM97.9345 31.7362C93.6069 31.7362 92.0659 28.5612 92.0659 25.5925C92.0659 23.515 92.9139 21.8944 94.5884 20.7687C95.7595 20.0428 97.1043 19.6451 98.4819 19.6174C101.784 19.6174 104.09 21.9929 104.09 25.3916C104.09 27.7051 103.17 29.5292 101.426 30.6684C100.589 31.1821 99.1344 31.7362 97.9345 31.7362Z" fill="#F7F3F5"/>
<path d="M82.9024 20.7148C81.569 20.7148 80.7062 21.7678 80.7062 23.3977C80.7062 25.0277 81.449 26.965 83.5374 26.965C83.896 26.965 84.5458 26.8059 84.868 26.4513C85.3534 26.0051 85.6769 25.0829 85.6769 24.1096C85.6769 21.9835 84.6415 20.7148 82.9091 20.7148M82.7365 31.9641C82.3598 31.9599 81.9884 32.0528 81.658 32.2337C80.6024 32.9078 80.113 33.5819 80.113 34.3652C80.113 35.0986 80.3974 35.6823 81.0095 36.2C81.751 36.8283 82.7514 37.1343 84.0658 37.1343C86.653 37.1343 87.8124 35.743 87.8124 34.3652C87.8124 33.4053 87.3311 32.7622 86.3402 32.3982C85.5771 32.1191 84.3018 31.9654 82.7406 31.9654M82.9131 38.5715C81.36 38.5715 80.2411 38.2439 79.2852 37.5078C78.3549 36.7905 77.937 35.7255 77.937 34.9894C77.9471 34.515 78.128 34.0602 78.4466 33.7086C78.7163 33.4012 79.3432 32.8255 80.7925 31.8292C80.8149 31.8197 80.8341 31.8037 80.8475 31.7833C80.8609 31.7629 80.868 31.7391 80.868 31.7146C80.8684 31.6874 80.8596 31.6608 80.8429 31.6392C80.8263 31.6177 80.8028 31.6024 80.7763 31.596C79.5831 31.139 79.2232 30.3826 79.114 29.9782C79.114 29.9634 79.114 29.9404 79.1018 29.9148C79.0681 29.7557 79.0358 29.6047 79.2528 29.4497C79.42 29.3311 79.6869 29.172 79.9728 29.0035C80.3762 28.7801 80.7632 28.5283 81.1309 28.2498C81.1506 28.2286 81.1653 28.2031 81.1737 28.1753C81.182 28.1476 81.184 28.1182 81.1793 28.0896C81.1746 28.061 81.1634 28.0338 81.1466 28.0102C81.1298 27.9865 81.1078 27.967 81.0823 27.9532C79.3162 27.36 78.4264 26.0482 78.4264 24.0435C78.421 23.4184 78.5664 22.8011 78.8504 22.2442C79.1344 21.6872 79.5485 21.207 80.0577 20.8443C80.7682 20.2821 82.5518 19.6066 83.7072 19.6066H83.7746C84.9624 19.6349 85.6324 19.8844 86.56 20.2268C87.0876 20.4176 87.6467 20.5063 88.2075 20.4883C89.1903 20.4883 89.6203 20.1769 89.9897 19.8142C90.0497 19.9776 90.0816 20.1499 90.0841 20.3239C90.1067 20.7384 89.9941 21.149 89.7633 21.4941C89.5624 21.7732 89.0892 21.9754 88.6564 21.9754C88.6119 21.9754 88.5688 21.9754 88.5216 21.9686C88.2939 21.9526 88.0682 21.9151 87.8475 21.8567L87.7369 21.8958C87.7019 21.9471 87.7248 22.0037 87.7531 22.0765C87.76 22.0907 87.7655 22.1056 87.7693 22.121C87.8482 22.4808 87.9018 22.8457 87.9297 23.213C87.9297 25.3094 87.1033 26.2222 86.2095 26.8989C85.3453 27.5474 84.319 27.9448 83.2435 28.0476C83.2205 28.0476 83.1086 28.057 82.8983 28.0759C82.7635 28.088 82.5882 28.1042 82.5626 28.1042H82.537C82.3429 28.1581 81.8359 28.3995 81.8359 28.8484C81.8359 29.2205 82.0651 29.6829 83.1612 29.7665L83.8704 29.8164C85.3156 29.9175 87.1208 30.0429 87.9702 30.3301C88.5336 30.5282 89.0202 30.8989 89.3608 31.3895C89.7013 31.8802 89.8785 32.4657 89.8671 33.0628C89.8671 34.9435 88.5297 36.7124 86.2903 37.7936C85.2343 38.298 84.078 38.5575 82.9078 38.5526" fill="#F7F3F5"/>
<path d="M76.2882 30.477C75.6546 30.3921 75.1921 30.3058 74.6461 30.0496C74.539 29.9386 74.4684 29.7975 74.4439 29.6452C74.3859 28.7621 74.3859 26.1992 74.3859 24.5221C74.3859 23.1537 74.1567 21.9605 73.577 21.1044C72.8854 20.1351 71.9066 19.5662 70.6393 19.5662C69.5163 19.5662 68.0185 20.3346 66.7808 21.3889C66.7512 21.4172 66.5611 21.5979 66.5651 21.3174C66.5692 21.037 66.6123 20.4681 66.6393 20.1041C66.6513 20.0074 66.6404 19.9092 66.6077 19.8174C66.5749 19.7257 66.5211 19.6428 66.4505 19.5756C65.6416 19.9801 63.3726 20.5193 62.5327 20.6016C61.9207 20.7202 61.7656 21.3094 62.4195 21.5129H62.4289C62.9523 21.6573 63.4519 21.8771 63.9119 22.1655C64.1708 22.365 64.1425 22.6495 64.1425 22.8773C64.1708 24.785 64.1708 27.7186 64.0845 29.3135C64.0562 29.9404 63.8823 30.1683 63.4212 30.2829L63.4643 30.268C63.1132 30.356 62.7571 30.4226 62.3979 30.4676C62.2537 30.6091 62.2537 31.4355 62.3979 31.6068C62.6864 31.6068 64.1505 31.5218 65.3639 31.5218C67.033 31.5218 67.8971 31.6068 68.3299 31.6068C68.5038 31.4072 68.5604 30.6388 68.4458 30.4676C68.0471 30.4495 67.651 30.3922 67.2635 30.2963C66.8038 30.1831 66.6878 29.9539 66.6595 29.4429C66.6029 28.1028 66.6029 25.2555 66.6029 23.3182C66.6029 22.7789 66.7458 22.5214 66.9184 22.3744C67.494 21.8621 68.4458 21.521 69.2804 21.521C70.0893 21.521 70.6286 21.7772 71.033 22.1183C71.5041 22.5293 71.7994 23.1055 71.8581 23.728C71.9727 24.8065 71.943 26.9758 71.943 28.8511C71.943 29.8771 71.8581 30.1346 71.4833 30.2478C71.3107 30.3327 70.8497 30.419 70.3023 30.4756C70.1297 30.6469 70.1864 31.4436 70.3023 31.6149C71.0505 31.6149 71.9201 31.5299 73.182 31.5299C74.7661 31.5299 75.7746 31.6149 76.1777 31.6149C76.3502 31.4153 76.4082 30.6711 76.2936 30.4756" fill="#F7F3F5"/>
</svg>
