<svg width="123" height="75" viewBox="0 0 123 75" fill="none" xmlns="http://www.w3.org/2000/svg">
<path d="M60.4924 75C60.0907 75 59.6891 74.8852 59.3258 74.6939L55.6537 72.5127C55.0991 72.2065 55.3669 72.0917 55.5581 72.0343C56.2849 71.7856 56.4379 71.7282 57.222 71.269C57.2985 71.2307 57.4132 71.2499 57.4897 71.2881L60.3202 72.9719C60.4159 73.0293 60.5689 73.0293 60.6645 72.9719L71.7188 66.5813C71.8144 66.5239 71.8909 66.4091 71.8909 66.2752V53.5132C71.8909 53.3793 71.8335 53.2645 71.7188 53.2071L60.6645 46.8357C60.5689 46.7783 60.435 46.7783 60.3202 46.8357L49.266 53.2071C49.1512 53.2645 49.0939 53.3984 49.0939 53.5132V66.2752C49.0939 66.39 49.1704 66.5048 49.266 66.5622L52.2877 68.3033C53.9325 69.1261 54.9461 68.1503 54.9461 67.1936V54.5847C54.9461 54.4125 55.08 54.2594 55.2712 54.2594H56.6674C56.8395 54.2594 56.9925 54.3934 56.9925 54.5847V67.1936C56.9925 69.3939 55.8067 70.6376 53.7221 70.6376C53.091 70.6376 52.5746 70.6376 51.1785 69.9488L48.2715 68.2842C47.5639 67.8633 47.1049 67.0979 47.1049 66.2752V53.5132C47.1049 52.6905 47.5447 51.906 48.2715 51.5042L59.3258 45.1137C60.0334 44.7119 60.9514 44.7119 61.6399 45.1137L72.6941 51.5042C73.4017 51.9252 73.8607 52.6905 73.8607 53.5132V66.2752C73.8607 67.0979 73.4209 67.8824 72.6941 68.2842L61.6399 74.6747C61.3147 74.8852 60.9131 75 60.4924 75ZM69.4238 62.4103C69.4238 60.0186 67.8172 59.3872 64.413 58.928C60.9705 58.4688 60.6262 58.2392 60.6262 57.4356C60.6262 56.7659 60.9131 55.8858 63.4567 55.8858C65.7326 55.8858 66.5741 56.3832 66.9184 57.9139C66.9566 58.067 67.0714 58.1626 67.2244 58.1626H68.6588C68.7544 58.1626 68.8309 58.1244 68.8883 58.067C68.9456 57.9904 68.9839 57.9139 68.9648 57.8182C68.7353 55.1778 66.9949 53.9533 63.4567 53.9533C60.3011 53.9533 58.4269 55.2926 58.4269 57.5121C58.4269 59.942 60.3011 60.5926 63.3229 60.8987C66.9375 61.2622 67.2244 61.7788 67.2244 62.4868C67.2244 63.7304 66.2299 64.247 63.8966 64.247C60.9705 64.247 60.3202 63.52 60.1099 62.0658C60.0907 61.9128 59.9569 61.798 59.7848 61.798H58.3504C58.1782 61.798 58.0252 61.9319 58.0252 62.1232C58.0252 63.9792 59.0389 66.1987 63.8775 66.1987C67.4156 66.1987 69.4238 64.8211 69.4238 62.4103ZM79.8469 52.8244C79.8469 53.9916 78.8906 54.9482 77.724 54.9482C76.5574 54.9482 75.6011 53.9916 75.6011 52.8244C75.6011 51.619 76.5956 50.7006 77.724 50.7006C78.8715 50.6815 79.8469 51.619 79.8469 52.8244ZM79.5026 52.8244C79.5026 51.8295 78.6994 51.045 77.7049 51.045C76.7295 51.045 75.9262 51.8295 75.9262 52.8244C75.9262 53.8194 76.7295 54.623 77.7049 54.623C78.6994 54.6038 79.5026 53.8002 79.5026 52.8244ZM78.642 54.0107H78.1448C78.1256 53.8959 78.0491 53.2836 78.0491 53.2645C78.0109 53.1306 77.9726 53.054 77.8005 53.054H77.3798V54.0107H76.9208V51.619H77.7431C78.03 51.619 78.5846 51.619 78.5846 52.2504C78.5846 52.6905 78.2977 52.7862 78.1256 52.8436C78.4508 52.8627 78.4699 53.0732 78.5273 53.3793C78.5464 53.5706 78.5846 53.8959 78.642 54.0107ZM78.1065 52.327C78.1065 52.0017 77.877 52.0017 77.7623 52.0017H77.3798V52.6714H77.7431C78.0491 52.6714 78.1065 52.4609 78.1065 52.327ZM26.2586 25.0619C26.2586 24.5453 25.9909 24.0861 25.551 23.8374L13.8274 17.0833C13.6361 16.9685 13.4066 16.9111 13.1771 16.892H13.0624C12.8329 16.892 12.6225 16.9685 12.4121 17.0833L0.707625 23.8374C0.26775 24.0861 0 24.5645 0 25.0619L0.019125 43.2386C0.019125 43.4874 0.153 43.717 0.363375 43.8509C0.57375 43.9848 0.8415 43.9848 1.071 43.8509L8.0325 39.852C8.47237 39.5841 8.74012 39.1249 8.74012 38.6275V30.1323C8.74012 29.6348 9.00788 29.1565 9.44775 28.9077L12.4121 27.2049C12.6416 27.0709 12.8711 27.0135 13.1197 27.0135C13.3684 27.0135 13.617 27.0709 13.8274 27.2049L16.7917 28.9077C17.2316 29.1565 17.4994 29.6348 17.4994 30.1323V38.6275C17.4994 39.1249 17.7671 39.6033 18.207 39.852L25.1685 43.8509C25.3789 43.9848 25.6658 43.9848 25.8761 43.8509C26.0865 43.7361 26.2204 43.4874 26.2204 43.2386L26.2586 25.0619ZM90.3656 5.22063V38.9719C90.3656 39.4693 90.0979 39.9477 89.658 40.1964L77.9344 46.9696C77.4945 47.2184 76.959 47.2184 76.5191 46.9696L64.7955 40.1964C64.3556 39.9477 64.0879 39.4693 64.0879 38.9719V25.4255C64.0879 24.928 64.3556 24.4497 64.7955 24.2009L76.5191 17.4277C76.959 17.179 77.4945 17.179 77.9344 17.4277L80.8605 19.1114C81.1856 19.3028 81.6064 19.054 81.6064 18.6905V0.705156C81.6064 0.169422 82.1801 -0.174979 82.6582 0.092888L89.6389 3.99609C90.0788 4.22569 90.3656 4.70403 90.3656 5.22063ZM81.5681 29.8835C81.5681 29.7496 81.4916 29.6348 81.396 29.5774L77.3798 27.2431C77.265 27.1857 77.1311 27.1857 77.0164 27.2431L73.0001 29.5774C72.8854 29.6348 72.828 29.7496 72.828 29.8835V34.5329C72.828 34.6669 72.9045 34.7817 73.0001 34.8391L77.0164 37.1542C77.1311 37.2116 77.265 37.2116 77.3606 37.1542L81.3769 34.8391C81.4916 34.7817 81.549 34.6669 81.549 34.5329V29.8835H81.5681ZM121.692 29.7496C122.132 29.5009 122.4 29.0225 122.4 28.5251V25.2533C122.4 24.7558 122.132 24.2775 121.692 24.0287L110.045 17.2555C109.605 17.0068 109.07 17.0068 108.63 17.2555L96.9064 24.0287C96.4665 24.2775 96.1987 24.7558 96.1987 25.2533V38.7997C96.1987 39.3163 96.4665 39.7755 96.9064 40.0242L108.553 46.6635C108.974 46.9122 109.51 46.9122 109.95 46.6635L116.988 42.7411C117.466 42.4733 117.466 41.7845 116.988 41.5166L105.188 34.7434C104.958 34.6095 104.824 34.3799 104.824 34.1311V29.8835C104.824 29.6348 104.958 29.4052 105.188 29.2713L108.859 27.1475C109.07 27.0135 109.357 27.0135 109.567 27.1475L113.239 29.2713C113.449 29.4052 113.603 29.6348 113.603 29.8835V33.2127C113.603 33.7485 114.195 34.0929 114.673 33.825L121.692 29.7496ZM106.909 30.4193C106.832 30.4767 106.775 30.5532 106.775 30.6489V33.251C106.775 33.3467 106.832 33.4423 106.909 33.4806L109.165 34.7817C109.242 34.8391 109.357 34.8391 109.433 34.7817L111.69 33.4806C111.766 33.4232 111.824 33.3467 111.824 33.251V30.6489C111.824 30.5532 111.766 30.4575 111.69 30.4193L109.433 29.1182C109.357 29.0608 109.242 29.0608 109.165 29.1182L106.909 30.4193ZM58.293 38.7423V25.2724C58.293 24.7749 57.987 24.2966 57.5471 24.0479L45.8618 17.3129C45.4601 17.0833 44.9055 17.045 44.4465 17.3129L32.7611 24.0479C32.3213 24.2966 32.0152 24.7558 32.0152 25.2724V38.7423C32.0152 39.278 32.3786 39.7372 32.7802 39.9668L44.4847 46.7018C44.9437 46.9696 45.4792 46.9505 45.9 46.7018L57.5662 39.9668C57.9105 39.7755 58.1591 39.4502 58.2547 39.0675C58.2739 38.9719 58.293 38.8571 58.293 38.7423ZM44.0831 14.8447L43.9301 14.9404H44.1405L44.0831 14.8447ZM58.6564 39.7563L58.5799 39.6224V39.7946L58.6564 39.7563Z" fill="#F7F3F5"/>
</svg>
