<svg width="84" height="73" viewBox="0 0 84 73" fill="none" xmlns="http://www.w3.org/2000/svg">
<path d="M68.0664 23.6308C67.1875 23.3378 66.3086 23.0611 65.4297 22.8007C65.5762 22.1985 65.7064 21.5963 65.8366 20.9941C67.8385 11.2935 66.5202 3.49731 62.0768 0.925699C57.7962 -1.53198 50.8138 1.02336 43.75 7.1757C43.0501 7.77791 42.3665 8.41268 41.7155 9.04744C41.276 8.62427 40.8203 8.20109 40.3646 7.79419C32.959 1.21867 25.5371 -1.54826 21.0938 1.03963C16.8294 3.51359 15.5599 10.8541 17.3503 20.0338C17.5293 20.9452 17.7246 21.8404 17.9525 22.7519C16.9108 23.0448 15.8854 23.3704 14.9251 23.7122C6.23372 26.7232 0 31.4758 0 36.3912C0 41.4693 6.64063 46.5637 15.6738 49.6562C16.4062 49.9003 17.1387 50.1444 17.8874 50.356C17.6432 51.3326 17.4316 52.2929 17.2363 53.2857C15.5273 62.3189 16.862 69.4804 21.1263 71.9381C25.5208 74.4771 32.9102 71.873 40.1042 65.5741C40.6738 65.0696 41.2435 64.5488 41.8131 63.9954C42.5293 64.6952 43.278 65.3625 44.0267 66.0136C50.9928 72.0032 57.8776 74.4283 62.1256 71.9706C66.5202 69.4316 67.9525 61.733 66.097 52.358C65.9505 51.6418 65.7878 50.9094 65.6087 50.1607C66.1296 50.0142 66.6341 49.8515 67.1387 49.6887C76.5299 46.58 83.3333 41.5507 83.3333 36.3912C83.3333 31.4596 76.9206 26.6744 68.0664 23.6308ZM46.0449 9.81242C52.0996 4.53898 57.7474 2.47192 60.319 3.95304C63.0697 5.53182 64.1276 11.912 62.4023 20.2942C62.2884 20.8476 62.1745 21.3847 62.028 21.9218C58.4147 21.108 54.7526 20.5221 51.0742 20.1965C48.9583 17.1692 46.6471 14.2721 44.1406 11.554C44.7754 10.9517 45.3939 10.3821 46.0449 9.81242ZM27.2135 44.8385C28.0436 46.2545 28.89 47.6705 29.7852 49.054C27.2461 48.7773 24.7233 48.3704 22.2331 47.8333C22.9492 45.4895 23.8444 43.0644 24.8861 40.5904C25.6348 42.0227 26.3997 43.4387 27.2135 44.8385ZM22.2819 25.2584C24.6256 24.7375 27.1159 24.3144 29.7038 23.9888C28.8411 25.3398 27.9948 26.7232 27.1973 28.123C26.3997 29.5064 25.6185 30.9224 24.8861 32.3547C23.8607 29.9296 22.998 27.5533 22.2819 25.2584ZM26.7415 36.4726C27.8158 34.2265 28.9876 32.0292 30.2246 29.8645C31.4616 27.6998 32.7962 25.6002 34.196 23.5331C36.6374 23.3541 39.1276 23.2564 41.6667 23.2564C44.2057 23.2564 46.7122 23.3541 49.1374 23.5331C50.5208 25.5839 51.8392 27.6835 53.0924 29.8319C54.3457 31.9804 55.5176 34.1777 56.6243 36.4075C55.5338 38.6536 54.362 40.8671 53.1087 43.0481C51.8717 45.2128 50.5534 47.3124 49.1699 49.3958C46.7448 49.5748 44.222 49.6562 41.6667 49.6562C39.1113 49.6562 36.6374 49.5748 34.2448 49.4283C32.8288 47.3612 31.4941 45.2454 30.2409 43.0807C28.9876 40.9159 27.832 38.7187 26.7415 36.4726ZM56.1361 44.8059C56.9661 43.3736 57.7474 41.925 58.5124 40.4602C59.554 42.8202 60.4655 45.2128 61.263 47.6705C58.7402 48.2402 56.1849 48.6796 53.6133 48.9726C54.4922 47.6054 55.3223 46.2056 56.1361 44.8059ZM58.4798 32.3547C57.7148 30.9224 56.9336 29.4902 56.1198 28.0904C55.3223 26.707 54.4922 25.3398 53.6296 23.9888C56.25 24.3144 58.7565 24.7538 61.1003 25.2909C60.3516 27.6998 59.4727 30.0435 58.4798 32.3547ZM41.6992 14.0442C43.4082 15.8997 45.0195 17.8528 46.5169 19.871C43.2943 19.7245 40.0553 19.7245 36.8327 19.871C38.4277 17.7714 40.0716 15.8183 41.6992 14.0442ZM22.819 4.06698C25.5534 2.47192 31.6243 4.75057 38.0208 10.4146C38.4277 10.7727 38.8346 11.1633 39.2578 11.554C36.735 14.2721 34.4076 17.1692 32.2754 20.1965C28.597 20.5221 24.9512 21.0917 21.3379 21.8892C21.1263 21.0592 20.9473 20.2128 20.7682 19.3665C19.2383 11.4889 20.2474 5.54809 22.819 4.06698ZM18.8314 46.9706C18.1478 46.7753 17.4805 46.5637 16.8132 46.3359C13.3464 45.2454 9.40755 43.5201 6.55924 41.2577C4.91536 40.1184 3.80859 38.3606 3.49935 36.3912C3.49935 33.4127 8.64258 29.6041 16.0645 27.0162C16.9922 26.6907 17.9362 26.3977 18.8802 26.121C19.987 29.6529 21.3216 33.1197 22.8678 36.4726C21.3053 39.8743 19.9544 43.3899 18.8314 46.9706ZM37.8092 62.9211C35.1237 65.3788 32.015 67.332 28.6296 68.6666C26.8229 69.5292 24.7396 69.6106 22.8841 68.8782C20.2962 67.3808 19.222 61.6353 20.6868 53.9042C20.8659 52.9928 21.0612 52.0813 21.2891 51.1861C24.9349 51.9674 28.6133 52.5045 32.3405 52.7812C34.4889 55.8248 36.849 58.7382 39.3717 61.4726C38.8509 61.9771 38.3301 62.4654 37.8092 62.9211ZM41.7969 58.9661C40.1367 57.1757 38.4766 55.19 36.8652 53.0579C38.4277 53.123 40.0391 53.1555 41.6667 53.1555C43.3431 53.1555 44.987 53.123 46.6146 53.0416C45.1172 55.1086 43.5059 57.078 41.7969 58.9661ZM63.0697 63.8489C62.9232 65.8345 61.9466 67.69 60.3841 68.9433C57.7962 70.4407 52.2786 68.4875 46.3216 63.3769C45.638 62.7909 44.9544 62.1562 44.2546 61.5051C46.7448 58.7545 49.0397 55.8411 51.123 52.7812C54.8503 52.4719 58.5612 51.9023 62.2233 51.0722C62.3861 51.7395 62.5326 52.4068 62.6628 53.0579C63.4603 56.5735 63.5905 60.2356 63.0697 63.8489ZM66.0319 46.3521C65.5762 46.4986 65.1204 46.6451 64.6484 46.7753C63.5091 43.2271 62.1094 39.7603 60.498 36.3912C62.0605 33.0709 63.3789 29.6529 64.4857 26.1536C65.332 26.3977 66.1458 26.6581 66.9271 26.9185C74.5117 29.5227 79.834 33.3964 79.834 36.3586C79.834 39.5487 74.1536 43.6666 66.0319 46.3521ZM41.6667 43.9107C45.7845 43.9107 49.1211 40.5741 49.1211 36.4563C49.1211 32.3385 45.7845 29.0019 41.6667 29.0019C37.5488 29.0019 34.2122 32.3385 34.2122 36.4563C34.2122 40.5741 37.5488 43.9107 41.6667 43.9107Z" fill="#F7F3F5"/>
</svg>
