<svg width="81" height="60" viewBox="0 0 81 60" fill="none" xmlns="http://www.w3.org/2000/svg">
<path d="M37.7282 45.3645C37.6532 45.502 37.6908 45.4395 37.7282 45.3645V45.3645ZM68.8658 34.4895C66.3517 34.4888 63.8711 35.0662 61.6157 36.177C60.8783 34.6895 60.1157 33.3895 59.9907 32.4145C59.8407 31.277 59.6782 30.602 59.8532 29.252C60.0282 27.902 60.8158 25.9895 60.8032 25.852C60.7907 25.7145 60.6283 25.027 59.0158 25.0145C57.4033 25.002 56.0157 25.327 55.8532 25.752C55.5684 26.5287 55.3469 27.3271 55.1908 28.1395C54.9033 29.602 51.9657 34.827 50.3032 37.552C49.7533 36.4895 49.2907 35.552 49.1908 34.802C49.0407 33.6645 48.8783 32.9895 49.0532 31.6395C49.2282 30.2895 50.0158 28.377 50.0033 28.2395C49.9907 28.102 49.8283 27.4145 48.2158 27.402C46.6033 27.3895 45.2157 27.7145 45.0532 28.1395C44.8908 28.5645 44.7158 29.5645 44.3908 30.527C44.0658 31.4895 40.1533 40.1895 39.1283 42.452C38.6032 43.602 38.1533 44.527 37.8283 45.152C37.7783 45.252 37.7408 45.3145 37.7158 45.3645C37.7533 45.302 37.7783 45.2395 37.7783 45.2645C37.5033 45.802 37.3408 46.102 37.3408 46.102V46.1145C37.1283 46.5145 36.8908 46.877 36.7783 46.877C36.7033 46.877 36.5407 45.827 36.8158 44.3895C37.4033 41.3645 38.7908 36.6645 38.7783 36.502C38.7658 36.4145 39.0407 35.602 37.8657 35.1645C36.7282 34.752 36.3158 35.4395 36.2158 35.4395C36.1158 35.4395 36.0407 35.6895 36.0407 35.6895C36.0407 35.6895 37.3032 30.3895 33.6157 30.3895C31.3158 30.3895 28.1157 32.9145 26.5407 35.202C25.5532 35.7395 23.4157 36.902 21.1657 38.1395C20.3032 38.6145 19.4157 39.102 18.5782 39.5645C18.5157 39.502 18.4657 39.4395 18.4032 39.377C13.9282 34.602 5.66575 31.227 6.01575 24.8145C6.14075 22.477 6.95325 16.3395 21.9032 8.88947C34.1532 2.78947 43.9533 4.46447 45.6283 8.18947C48.0532 13.502 40.3907 23.3895 27.6657 24.8145C22.8157 25.352 20.2657 23.477 19.6282 22.777C18.9657 22.0395 18.8657 22.002 18.6157 22.1395C18.2032 22.3645 18.4657 23.0145 18.6157 23.402C18.9907 24.3895 20.5532 26.1395 23.2157 27.0145C25.5532 27.777 31.2407 28.202 38.1157 25.5395C45.8407 22.5645 51.8533 14.277 50.0908 7.33947C48.3158 0.289469 36.6283 -2.02303 25.5782 1.90197C18.9907 4.23947 11.8657 7.91447 6.74075 12.702C0.653249 18.402 -0.321751 23.3645 0.0782489 25.4395C1.50325 32.802 11.6532 37.602 15.7157 41.152C15.5157 41.2645 15.3282 41.3645 15.1532 41.4645C13.1157 42.477 5.37825 46.527 3.44075 50.802C1.25325 55.652 3.80325 59.127 5.47825 59.602C10.7032 61.052 16.0532 58.4395 18.9282 54.152C21.8032 49.8645 21.4532 44.2645 20.1282 41.7145C20.1157 41.677 20.0907 41.652 20.0782 41.6145C20.6032 41.302 21.1407 40.9895 21.6782 40.677C22.7157 40.0645 23.7282 39.502 24.6157 39.0145C24.1157 40.3645 23.7532 41.9895 23.5657 44.3395C23.3407 47.0895 24.4782 50.652 25.9532 52.052C26.6032 52.6645 27.3907 52.677 27.8782 52.677C29.6032 52.677 30.3782 51.252 31.2407 49.552C32.3032 47.477 33.2407 45.0645 33.2407 45.0645C33.2407 45.0645 32.0658 51.5895 35.2783 51.5895C36.4533 51.5895 37.6283 50.077 38.1533 49.302V49.3145C38.1533 49.3145 38.1782 49.2645 38.2407 49.1645C38.3657 48.977 38.4282 48.8645 38.4282 48.8645V48.827C38.9032 48.0145 39.9408 46.152 41.5033 43.077C43.5283 39.102 45.4658 34.1395 45.4658 34.1395C45.6528 35.2304 45.9117 36.3077 46.2407 37.3645C46.5907 38.552 47.3282 39.852 47.9157 41.1145C47.4408 41.7645 47.1533 42.1395 47.1533 42.1395C47.154 42.1491 47.1585 42.1581 47.1657 42.1645C46.7907 42.6645 46.3657 43.202 45.9282 43.727C44.3283 45.627 42.4282 47.802 42.1782 48.427C41.8783 49.1645 41.9533 49.7145 42.5283 50.1395C42.9533 50.4645 43.7033 50.5145 44.4907 50.452C45.9282 50.352 46.9408 50.002 47.4282 49.777C48.3274 49.4548 49.1773 49.0089 49.9533 48.452C51.5158 47.302 52.4658 45.652 52.3783 43.477C52.3283 42.277 51.9408 41.077 51.4658 39.952C51.6033 39.752 51.7533 39.5395 51.8908 39.327C54.3533 35.7145 56.2658 31.752 56.2658 31.752C56.4528 32.8429 56.7117 33.9202 57.0407 34.977C57.3407 35.9895 57.9283 37.102 58.4658 38.1895C56.1408 40.077 54.7033 42.2645 54.2033 43.702C53.2783 46.3645 54.0033 47.5645 55.3657 47.8395C55.9782 47.9645 56.8532 47.677 57.5033 47.402C58.469 47.0805 59.3796 46.6125 60.2033 46.0145C61.7658 44.8645 63.2782 43.252 63.1782 41.0645C63.1408 40.077 62.8657 39.0895 62.5033 38.1395C64.4658 37.3145 67.0157 36.8645 70.2657 37.2395C77.2282 38.052 78.5907 42.402 78.3282 44.2145C78.0658 46.027 76.6033 47.0395 76.1158 47.3395C75.6283 47.6395 75.4782 47.752 75.5157 47.977C75.5782 48.302 75.8033 48.2895 76.2158 48.2145C76.7907 48.1145 79.8658 46.7395 80.0033 43.377C80.2032 39.127 76.1158 34.452 68.8783 34.4895H68.8658ZM15.2157 52.577C12.9157 55.0895 9.69075 56.0395 8.30325 55.2395C6.82825 54.377 7.41575 50.677 10.2532 48.002C11.9782 46.377 14.2032 44.877 15.6782 43.952C16.0157 43.752 16.5032 43.452 17.1032 43.0895C17.2032 43.027 17.2532 43.002 17.2532 43.002C17.3657 42.927 17.4907 42.8645 17.6157 42.7895C18.6532 46.5895 17.6532 49.9395 15.2282 52.577H15.2157ZM32.0158 41.152C31.2158 43.1145 29.5282 48.1145 28.5032 47.852C27.6282 47.627 27.0907 43.8145 28.3282 40.0645C28.9532 38.177 30.2782 35.927 31.0657 35.052C32.3282 33.6395 33.7157 33.1895 34.0407 33.752C34.4782 34.4895 32.5158 39.927 32.0158 41.152ZM45.8908 47.777C45.5532 47.952 45.2408 48.0645 45.0908 47.977C44.9783 47.9145 45.2282 47.677 45.2282 47.677C45.2282 47.677 46.9658 45.8145 47.6533 44.9645C48.0533 44.4645 48.5158 43.877 49.0158 43.227C49.0158 43.2895 49.0283 43.352 49.0283 43.427C49.0158 45.6645 46.8657 47.177 45.8908 47.777ZM56.5908 45.3395C56.3408 45.1645 56.3783 44.577 57.2158 42.752C57.5408 42.0395 58.2908 40.8395 59.5908 39.6895C59.738 40.1248 59.8181 40.58 59.8283 41.0395C59.8158 43.852 57.8033 44.902 56.5908 45.3395Z" fill="#F7F3F5"/>
</svg>
