<svg width="84" height="50" viewBox="0 0 84 50" fill="none" xmlns="http://www.w3.org/2000/svg">
<path fill-rule="evenodd" clip-rule="evenodd" d="M41.6667 0C30.5542 0 23.6125 5.52083 20.8333 16.5667C25 11.0458 29.8625 8.975 35.4167 10.3542C38.5875 11.1417 40.8542 13.4292 43.3583 15.9583C47.4458 20.0792 52.175 24.85 62.5 24.85C73.6125 24.85 80.5542 19.3292 83.3333 8.28333C79.1667 13.8042 74.3083 15.875 68.75 14.4958C65.5792 13.7083 63.3125 11.4208 60.8042 8.89167C56.7208 4.76667 51.9958 0 41.6667 0ZM20.8333 24.85C9.72083 24.85 2.77917 30.3708 0 41.4167C4.16667 35.8917 9.02917 33.825 14.5833 35.2042C17.7542 35.9917 20.0208 38.2792 22.5292 40.8083C26.6125 44.9292 31.3417 49.7 41.6708 49.7C52.7833 49.7 59.725 44.1792 62.5042 33.1333C58.3375 38.6542 53.475 40.725 47.9208 39.3458C44.75 38.5583 42.4833 36.2708 39.9792 33.7417C35.8875 29.6208 31.1583 24.85 20.8333 24.85Z" fill="#F7F3F5"/>
</svg>
